<svg xmlns="http://www.w3.org/2000/svg" width="20" height="20" viewBox="0 0 20 20">
  <g id="Group_33280" data-name="Group 33280" transform="translate(-475 -28)">
    <circle id="Ellipse_460" data-name="Ellipse 460" cx="10" cy="10" r="10" transform="translate(475 28)" fill="#fff"/>
    <path id="Icon_awesome-phone-alt" data-name="Icon awesome-phone-alt" d="M11.658,8.48,9.033,7.355a.563.563,0,0,0-.656.162L7.214,8.937A8.687,8.687,0,0,1,3.061,4.784l1.42-1.163a.561.561,0,0,0,.162-.656L3.518.34A.566.566,0,0,0,2.873.015L.436.577A.563.563,0,0,0,0,1.125,10.874,10.874,0,0,0,10.875,12a.563.563,0,0,0,.548-.436l.563-2.438a.569.569,0,0,0-.328-.647Z" transform="translate(479 32)" fill="#1e1e1e"/>
  </g>
</svg>
